<svg xmlns="http://www.w3.org/2000/svg" width="205.156" height="66.705" viewBox="0 0 205.156 66.705">
  <defs>
    <style>
      .cls-1 {
        fill: #bb001d;
      }

      .cls-2 {
        fill: #d46465;
      }
    </style>
  </defs>
  <g id="Group_792" data-name="Group 792" transform="translate(-1031.953 54.486)">
    <path id="Path_613" data-name="Path 613" class="cls-1" d="M1187.052,8.074l.059.106,13.653,23.641V.157h0Z" transform="translate(-110.156 -38.808)"/>
    <path id="Path_614" data-name="Path 614" class="cls-2" d="M1139.712-54.486l13.718,23.751,13.711-7.918Z" transform="translate(-76.534 0)"/>
    <path id="Path_615" data-name="Path 615" class="cls-1" d="M1031.953.16h0V31.825L1045.6,8.179l.061-.106Z" transform="translate(0 -38.811)"/>
    <path id="Path_616" data-name="Path 616" class="cls-2" d="M1059.376-54.486l-27.423,15.835,13.712,7.912Z" transform="translate(0 0)"/>
    <path id="Path_617" data-name="Path 617" class="cls-1" d="M1133.784,121.067h-.121V136.9l27.427-15.835Z" transform="translate(-72.237 -124.683)"/>
    <path id="Path_618" data-name="Path 618" class="cls-2" d="M1039.017,121.067l27.425,15.835V121.067Z" transform="translate(-5.017 -124.683)"/>
    <g id="Group_790" data-name="Group 790" transform="translate(1106.88 -38.586)">
      <path id="Path_619" data-name="Path 619" class="cls-1" d="M1290.528.887h1.624L1297.17,9.7h.029V.887h.966V11.451h-1l-5.648-9.774h-.029v9.774h-.966Z" transform="translate(-1290.528 -0.741)"/>
      <path id="Path_620" data-name="Path 620" class="cls-1" d="M1328.13,11.451V.887h6.028v.79H1329.1V5.569h3.644v.79H1329.1v4.3h5.341v.79Z" transform="translate(-1317.234 -0.741)"/>
      <path id="Path_621" data-name="Path 621" class="cls-1" d="M1357.357.887h.965v9.774h4.712v.79h-5.677Z" transform="translate(-1337.992 -0.741)"/>
      <path id="Path_622" data-name="Path 622" class="cls-1" d="M1389.47,5.812c0,3.116-1.521,5.429-4.17,5.429s-4.17-2.312-4.17-5.429,1.522-5.428,4.17-5.428S1389.47,2.7,1389.47,5.812Zm-.966,0c0-2.97-1.258-4.638-3.2-4.638s-3.2,1.668-3.2,4.638,1.258,4.638,3.2,4.638S1388.5,8.782,1388.5,5.812Z" transform="translate(-1354.876 -0.384)"/>
      <path id="Path_623" data-name="Path 623" class="cls-1" d="M1425.8,11.451h-1.053l-2.458-4.829h-2.736v4.829h-.965V.887h3.57c2.078,0,3.249,1.142,3.249,2.868a2.564,2.564,0,0,1-2.2,2.692Zm-6.247-5.618h2.6a2.02,2.02,0,0,0,2.282-2.077c0-1.3-.761-2.078-2.282-2.078h-2.6Z" transform="translate(-1381.477 -0.741)"/>
      <path id="Path_624" data-name="Path 624" class="cls-1" d="M1453.409,11.451V.887h6.028v.79h-5.062V5.569h3.644v.79h-3.644v4.3h5.341v.79Z" transform="translate(-1406.211 -0.741)"/>
    </g>
    <g id="Group_791" data-name="Group 791" transform="translate(1106.799 -28.038)">
      <path id="Path_625" data-name="Path 625" class="cls-1" d="M1290.25,56h4.761c5.234,0,8.13,2.812,8.13,7.211,0,4.371-2.923,7.211-8.13,7.211h-1.81v4.511h-2.951Zm4.65,11.832c3.731,0,5.234-1.754,5.234-4.621s-1.531-4.622-5.234-4.622h-1.7v9.243Z" transform="translate(-1290.25 -50.436)"/>
      <path id="Path_626" data-name="Path 626" class="cls-1" d="M1362.351,55.329h.334l8.3,19.128h-3.063l-1.086-2.673h-8.659l-1.086,2.673h-2.839Zm3.425,13.977-2.367-5.9a28.427,28.427,0,0,1-.947-2.812,25.42,25.42,0,0,1-.919,2.812l-2.366,5.9Z" transform="translate(-1335.704 -49.956)"/>
      <path id="Path_627" data-name="Path 627" class="cls-1" d="M1454.706,74.937h-3.4l-3.4-4.983a15.131,15.131,0,0,1-1.588.111h-1.782v4.872h-2.951V56h4.733c5.235,0,8.158,2.728,8.158,7.072a6.046,6.046,0,0,1-3.786,6.014Zm-8.491-7.406c3.758,0,5.261-1.643,5.261-4.455,0-2.84-1.559-4.483-5.261-4.483h-1.672v8.938Z" transform="translate(-1397.739 -50.436)"/>
      <path id="Path_628" data-name="Path 628" class="cls-1" d="M1521.188,55.329h.334l8.3,19.128h-3.062l-1.086-2.673h-8.659l-1.086,2.673h-2.839Zm3.425,13.977-2.366-5.9a28.392,28.392,0,0,1-.947-2.812,25.4,25.4,0,0,1-.919,2.812l-2.366,5.9Z" transform="translate(-1448.515 -49.956)"/>
      <path id="Path_629" data-name="Path 629" class="cls-1" d="M1604.748,63.4c-.752-.807-1.782-2.116-1.782-2.116a26.915,26.915,0,0,1,.195,2.728V74.457h-2.729V55.329h.39l10.441,11.221c.724.78,1.755,2.116,1.755,2.116s-.195-1.67-.195-2.728V55.525h2.728V74.652h-.362Z" transform="translate(-1510.551 -49.956)"/>
      <path id="Path_630" data-name="Path 630" class="cls-1" d="M1690.306,42.159h.334l8.3,19.128h-3.063l-1.086-2.673h-8.659l-1.086,2.673h-2.84Zm-4.287-1.893c.111-2.283,1.252-3.48,2.729-3.48a2.8,2.8,0,0,1,1.837.724c.668.5.919.752,1.365.752.529,0,.807-.473.891-1.448l1.977.2c-.112,2.283-1.2,3.48-2.729,3.48a2.876,2.876,0,0,1-1.838-.752c-.668-.5-.891-.751-1.336-.751-.529,0-.835.5-.919,1.476Zm7.712,15.87-2.367-5.9a28.488,28.488,0,0,1-.946-2.812,25.522,25.522,0,0,1-.919,2.812l-2.366,5.9Z" transform="translate(-1568.628 -36.786)"/>
    </g>
  </g>
</svg>
